<svg width="160" height="160" viewBox="0 0 160 160" fill="none" xmlns="http://www.w3.org/2000/svg">
  <circle cx="80" cy="80" r="64" fill="white" fill-opacity="0.38" stroke="white" stroke-width="5"/>
  <circle cx="80" cy="80" r="58" stroke="#E8F0FF" stroke-opacity="0.9" stroke-width="3"/>
  <path d="M66 74C77.0457 74 86 65.0457 86 54C86 42.9543 77.0457 34 66 34C54.9543 34 46 42.9543 46 54C46 65.0457 54.9543 74 66 74Z" fill="url(#paint0_linear)" stroke="#102447" stroke-width="4"/>
  <path d="M105 77C114.389 77 122 69.3888 122 60C122 50.6112 114.389 43 105 43C95.6112 43 88 50.6112 88 60C88 69.3888 95.6112 77 105 77Z" fill="url(#paint1_linear)" stroke="#102447" stroke-width="4"/>
  <path d="M31 124C34.2 94.4 47.2 83 66 83C84.8 83 97.8 94.4 101 124H31Z" fill="url(#paint2_linear)" stroke="#102447" stroke-width="4" stroke-linejoin="round"/>
  <path d="M92 91C99.2 84.2 112.6 84.9 120.4 93.4C127.3 100.9 130 110.7 131.5 124H104.5" stroke="#102447" stroke-width="8" stroke-linecap="round"/>
  <defs>
    <linearGradient id="paint0_linear" x1="42" y1="34" x2="90" y2="76" gradientUnits="userSpaceOnUse">
      <stop stop-color="#12284D"/>
      <stop offset="1" stop-color="#1B376B"/>
    </linearGradient>
    <linearGradient id="paint1_linear" x1="86" y1="43" x2="124" y2="78" gradientUnits="userSpaceOnUse">
      <stop stop-color="#12284D"/>
      <stop offset="1" stop-color="#1B376B"/>
    </linearGradient>
    <linearGradient id="paint2_linear" x1="31" y1="83" x2="101" y2="127" gradientUnits="userSpaceOnUse">
      <stop stop-color="#12284D"/>
      <stop offset="1" stop-color="#1B376B"/>
    </linearGradient>
  </defs>
</svg>
